<svg xmlns="http://www.w3.org/2000/svg" width="24" height="24" viewBox="0 0 24 24">
    <g fill="none" fill-rule="evenodd">
        <path fill="#DE1C24" d="M12 2c5.52 0 10 4.48 10 10s-4.48 10-10 10S2 17.52 2 12 6.48 2 12 2zm5.665 4.335c-.447-.447-1.172-.447-1.619 0L12 10.382 7.954 6.335l-.1-.089c-.45-.355-1.104-.326-1.519.09l-.089.099c-.355.45-.326 1.104.09 1.519L10.381 12l-4.047 4.046c-.447.447-.447 1.172 0 1.619.447.447 1.172.447 1.619 0L12 13.618l4.046 4.047.1.089c.45.355 1.104.326 1.519-.09l.089-.099c.355-.45.326-1.104-.09-1.519L13.619 12l4.047-4.046c.447-.447.447-1.172 0-1.619z"/>
    </g>
</svg>
