<svg xmlns="http://www.w3.org/2000/svg" width="24" height="24" viewBox="0 0 24 24">
    <g fill="none" fill-rule="evenodd">
        <path fill="#5FB446" d="M12 2c5.52 0 10 4.48 10 10s-4.48 10-10 10S2 17.52 2 12 6.48 2 12 2zM9.921 17.735l.005.003-.004-.004.013.011.012.01.051.038.058.037c.016.01.033.02.05.028l.053.025.06.024.049.017c.021.007.043.012.065.018l.055.011.059.009.063.005.049.002c.026 0 .051-.001.077-.003l.037-.003.074-.011.05-.01.064-.019.048-.016.058-.023c.02-.009.04-.018.058-.028l.05-.027.047-.03c.023-.016.046-.032.067-.05l.025-.02.06-.057.008-.008.012-.012.008-.011-.009.01.008-.009.014-.017.015-.014 7.11-8.46c.355-.423.3-1.054-.123-1.41-.423-.354-1.054-.299-1.409.124L10.5 15.491l-3.448-3.447-.097-.08c-.402-.292-.968-.245-1.316.127-.378.404-.357 1.036.047 1.414l4.196 4.194.021.017.007.007.006.005.006.007z"/>
    </g>
</svg>
