<svg xmlns="http://www.w3.org/2000/svg" width="24" height="24" viewBox="0 0 24 24">
    <defs>
        <filter id="a" width="108.6%" height="113.2%" x="-4.3%" y="-6.6%" filterUnits="objectBoundingBox">
            <feOffset dy="1" in="SourceAlpha" result="shadowOffsetOuter1"/>
            <feGaussianBlur in="shadowOffsetOuter1" result="shadowBlurOuter1" stdDeviation="3"/>
            <feComposite in="shadowBlurOuter1" in2="SourceAlpha" operator="out" result="shadowBlurOuter1"/>
            <feColorMatrix in="shadowBlurOuter1" result="shadowMatrixOuter1" values="0 0 0 0 0 0 0 0 0 0 0 0 0 0 0 0 0 0 0.131368886 0"/>
            <feMerge>
                <feMergeNode in="shadowMatrixOuter1"/>
                <feMergeNode in="SourceGraphic"/>
            </feMerge>
        </filter>
    </defs>
    <path fill="#0071CE" fill-rule="nonzero" d="M19 4a3 3 0 0 1 3 3v10a3 3 0 0 1-3 3H5a3 3 0 0 1-3-3V7a3 3 0 0 1 3-3h14zm0 2H5a1 1 0 0 0-1 1v10a1 1 0 0 0 1 1h14a1 1 0 0 0 1-1V7a1 1 0 0 0-1-1zM8.5 8c1.137 0 2.059.895 2.059 2a1.99 1.99 0 0 1-1.052 1.745C10.95 12.163 12 13.463 12 15v.6c0 .22-.184.4-.412.4H5.412A.406.406 0 0 1 5 15.6V15c0-1.537 1.05-2.837 2.492-3.257A1.987 1.987 0 0 1 6.442 10c0-1.105.92-2 2.058-2zm8 3a.5.5 0 1 1 0 1h-3a.5.5 0 1 1 0-1h3zm2-2a.5.5 0 1 1 0 1h-5a.5.5 0 1 1 0-1h5z" filter="url(#a)"/>
</svg>
