<?xml version="1.0" encoding="UTF-8"?>
<svg width="121px" height="22px" viewBox="0 0 121 22" version="1.1" xmlns="http://www.w3.org/2000/svg" xmlns:xlink="http://www.w3.org/1999/xlink">
    <!-- Generator: sketchtool 61.2 (101010) - https://sketch.com -->
    <title>5C414FA8-5DFC-44AC-A48C-37FE694D8383</title>
    <desc>Created with sketchtool.</desc>
    <defs>
        <polygon id="path-1" points="0 0.167718056 65.8417627 0.167718056 65.8417627 12.8535514 0 12.8535514"></polygon>
        <polygon id="path-3" points="0.16732712 0.17325 18.8268115 0.17325 18.8268115 21.9999817 0.16732712 21.9999817"></polygon>
    </defs>
    <g id="Zeplin" stroke="none" stroke-width="1" fill="none" fill-rule="evenodd">
        <g id="No-resultados-1" transform="translate(-660.000000, -1111.000000)">
            <g id="footer-color" transform="translate(0.000000, 1097.000000)">
                <g id="Group-2">
                    <g id="Group-5" transform="translate(214.000000, 14.000000)">
                        <g id="Group" transform="translate(446.000000, 0.000000)">
                            <g id="Group-7">
                                <g id="Group-3" transform="translate(0.000000, 5.000000)">
                                    <mask id="mask-2" fill="white">
                                        <use xlink:href="#path-1"></use>
                                    </mask>
                                    <g id="Clip-2"></g>
                                    <path d="M32.1360148,3.27110694 L32.1360148,4.54456528 L32.1736258,4.54456528 C32.6063326,3.86296806 33.3196751,3.05967639 34.9071107,3.05967639 C36.142486,3.05967639 37.0903545,3.72592639 37.4935874,4.73577361 L37.5311984,4.73577361 C37.8785573,4.22696806 38.2761847,3.84057917 38.7201025,3.56848194 C39.2481025,3.24492639 39.8321573,3.05967639 40.5720805,3.05967639 C42.2432367,3.05967639 43.7232641,4.21234306 43.7232641,7.12307917 L43.7232641,12.6424819 L41.1736751,12.6424819 L41.1736751,7.5076625 C41.1736751,6.03234306 40.6729792,5.17885694 39.6296367,5.17885694 C38.8645792,5.17885694 38.3089134,5.69109306 38.0993408,6.32050972 C38.0270121,6.53807917 37.9931984,6.83419028 37.9931984,7.0802875 L37.9931984,12.6424819 L35.4455984,12.6424819 L35.4455984,7.30146806 C35.4455984,6.04769028 34.9640696,5.17885694 33.9350121,5.17885694 C33.1117299,5.17885694 32.5963874,5.82614861 32.3850066,6.37955139 C32.2949573,6.61662083 32.2654833,6.88889861 32.2654833,7.14655139 L32.2654833,12.6424819 L29.7149901,12.6424819 L29.7149901,3.27110694 L32.1360148,3.27110694 Z M56.8778778,3.27110694 L56.8778778,5.03874583 L56.94876,5.03874583 C57.4150997,3.68927361 58.5262504,3.05967639 59.5028696,3.05967639 C59.7480641,3.05967639 59.8825956,3.07809306 60.0796915,3.11763472 L60.0796915,5.57138472 C59.844623,5.53725972 59.6276367,5.50457917 59.3242175,5.50457917 C58.2192148,5.50457917 57.4492751,6.14699583 57.255434,7.15232917 C57.2145682,7.35924583 57.1988367,7.58494028 57.1988367,7.8440375 L57.1988367,12.6424819 L54.5816203,12.6424819 L54.5816203,3.27110694 L56.8778778,3.27110694 Z M63.6322997,0.167898611 L63.6322997,3.11763472 L65.8417627,3.11763472 L65.8417627,5.50457917 L63.6322997,5.50457917 L63.6322997,9.02523194 C63.6322997,10.1643569 63.9223381,10.7170375 64.7863052,10.7170375 C65.1935162,10.7170375 65.491149,10.6661208 65.7499052,10.6025653 L65.782634,12.5819958 C65.4349134,12.7114542 64.6967984,12.8535514 63.946749,12.8535514 C63.0645189,12.8535514 62.3283929,12.5458847 61.8814011,12.0710236 C61.3698559,11.5280931 61.1306285,10.6392181 61.1306285,9.37045417 L61.1306285,0.167898611 L63.6322997,0.167898611 Z M25.4014833,12.6424819 L27.938234,12.6424819 L27.938234,0.167718056 L25.4014833,0.167718056 L25.4014833,12.6424819 Z M21.1749518,9.29462083 C21.1749518,9.46759306 21.1599436,9.6461625 21.1122066,9.80198194 C20.9156532,10.4512597 20.2420915,11.0001486 19.4000038,11.0001486 C18.6980532,11.0001486 18.1402175,10.6022042 18.1402175,9.76045417 C18.1402175,8.47327361 19.5594888,8.11721806 21.1749518,8.12570417 L21.1749518,9.29462083 Z M23.709171,7.05157917 C23.709171,4.92770417 22.8009025,3.05967639 19.7314504,3.05967639 C18.1548641,3.05967639 16.9033956,3.50185694 16.2213353,3.89546806 L16.7205847,5.60225972 C17.3447819,5.20919028 18.33876,4.88382917 19.2801189,4.88382917 C20.8384422,4.87985694 21.0934011,5.7640375 21.0934011,6.33080139 L21.0934011,6.46495417 C17.6975655,6.45989861 15.5528367,7.63314861 15.5528367,10.0247875 C15.5528367,11.4851208 16.6446395,12.8535514 18.5432696,12.8535514 C19.7121025,12.8535514 20.6894449,12.3880792 21.2753079,11.6422042 L21.3326285,11.6422042 C21.3326285,11.6422042 21.7206723,13.2619681 23.8578066,12.6424819 C23.7455162,11.9682875 23.709171,11.2496764 23.709171,10.3842736 L23.709171,7.05157917 Z M2.80597644,0.167898611 C3.06762575,1.4886625 3.81315452,5.32131528 3.81315452,5.32131528 C4.12543397,6.89738472 4.41402575,8.54964861 4.63065041,9.85614861 L4.66880384,9.85614861 C4.88018466,8.46875972 5.21271616,7.15413472 5.56821205,5.52588472 L6.82311616,0.167898611 L9.59927507,0.167898611 L10.7724477,5.66437083 C11.0805682,7.19385694 11.3255819,8.37162083 11.5181573,9.79385694 L11.5561299,9.79385694 C11.7680532,8.35771806 12.0425408,7.13084306 12.3455984,5.56109306 L13.4724805,0.167898611 L16.1368915,0.167898611 L12.8365299,12.6424819 C10.7341134,13.1025375 9.92855178,12.2575375 9.63887507,10.9161903 C9.35028329,9.57448194 8.78666137,7.0201625 8.78666137,7.0201625 C8.49770795,5.62175972 8.27186137,4.63502361 8.11309973,3.19924583 L8.07368055,3.19924583 C7.84783397,4.62094028 7.61222301,5.61724583 7.26124767,7.01492639 L5.87615178,12.6424819 C3.72979562,13.0693153 2.98517096,12.4364681 2.57199288,10.7170375 C2.21794356,9.24388472 -1.80821918e-05,0.167898611 -1.80821918e-05,0.167898611 L2.80597644,0.167898611 Z M50.3554504,9.29462083 C50.3554504,9.46759306 50.3400805,9.6461625 50.2925244,9.80198194 C50.0961518,10.4512597 49.4224093,11.0001486 48.5803216,11.0001486 C47.8781901,11.0001486 47.3203545,10.6022042 47.3203545,9.76045417 C47.3203545,8.47327361 48.7398066,8.11721806 50.3554504,8.12570417 L50.3554504,9.29462083 Z M52.8900312,7.05157917 C52.8900312,4.92770417 51.9815819,3.05967639 48.9117682,3.05967639 C47.3355436,3.05967639 46.0842559,3.50185694 45.4014723,3.89546806 L45.9014449,5.60225972 C46.5252805,5.20919028 47.5199819,4.88382917 48.4607984,4.88382917 C50.0180367,4.87985694 50.2735381,5.7640375 50.2735381,6.33080139 L50.2735381,6.46495417 C46.8782449,6.45989861 44.7329737,7.63314861 44.7329737,10.0247875 C44.7329737,11.4851208 45.8256805,12.8535514 47.725034,12.8535514 C48.8929627,12.8535514 49.8708477,12.3880792 50.4554449,11.6422042 L50.5133079,11.6422042 C50.5133079,11.6422042 50.901171,13.2619681 53.038486,12.6424819 C52.9261956,11.9682875 52.8900312,11.2496764 52.8900312,10.3842736 L52.8900312,7.05157917 Z" id="Fill-1" fill="#FFFFFF" mask="url(#mask-2)"></path>
                                </g>
                                <g id="Group-6" transform="translate(71.000000, 0.000000)">
                                    <mask id="mask-4" fill="white">
                                        <use xlink:href="#path-3"></use>
                                    </mask>
                                    <g id="Clip-5"></g>
                                    <path d="M6.53411759,12.870165 C6.77900648,13.312915 6.76018241,13.8088317 6.50121944,14.0321317 L1.99681204,17.3214983 C1.52920093,17.6030983 0.826552778,17.261915 0.42790463,16.544165 C0.0282009259,15.8243983 0.0990990741,15.0202983 0.566710185,14.7370483 L5.55350648,12.3199817 C5.86559907,12.197515 6.28905278,12.4270483 6.53411759,12.870165 M12.4598306,12.870165 C12.7054231,12.4270483 13.1276454,12.197515 13.439738,12.3199817 L18.427238,14.7370483 C18.8967843,15.0202983 18.9641639,15.8243983 18.567275,16.544165 C18.1668676,17.261915 17.4635157,17.6030983 16.9966083,17.3214983 L12.4922009,14.0321317 C12.2346454,13.8088317 12.2147657,13.3121817 12.4598306,12.870165 M9.49583056,14.6539983 C9.98648796,14.6539983 10.3895343,14.9181817 10.4442472,15.2617483 L10.9290991,20.9718483 C10.9290991,21.5372483 10.2947102,21.9999817 9.49635833,21.9999817 C8.69958981,21.9999817 8.06608056,21.5372483 8.06608056,20.9718483 L8.54987685,15.2617483 C8.60353426,14.9181817 9.00710833,14.6539983 9.49583056,14.6539983 M12.4922009,8.144565 L16.9966083,4.85263167 C17.4635157,4.57029833 18.1668676,4.91019833 18.567275,5.63014833 C18.9641639,6.34954833 18.8967843,7.15309833 18.427238,7.435065 L13.439738,9.855065 C13.1276454,9.976065 12.7048954,9.746165 12.4598306,9.30378167 C12.2147657,8.86139833 12.2346454,8.36529833 12.4922009,8.144565 M5.55350648,9.855065 L0.566710185,7.435065 C0.0990990741,7.15309833 0.0282009259,6.34954833 0.42790463,5.63014833 C0.826552778,4.91019833 1.52920093,4.57029833 1.99681204,4.85263167 L6.50121944,8.144565 C6.76018241,8.36529833 6.77918241,8.860665 6.53394167,9.30378167 C6.2892287,9.74579833 5.86559907,9.976065 5.55350648,9.855065 M8.54987685,6.91183167 L8.06608056,1.20154833 C8.06608056,0.636881667 8.69958981,0.173231667 9.49635833,0.173231667 C10.2947102,0.173231667 10.9290991,0.636881667 10.9290991,1.20154833 L10.4442472,6.91183167 C10.3895343,7.255765 9.98648796,7.52123167 9.49583056,7.52123167 C9.00710833,7.52123167 8.60353426,7.255765 8.54987685,6.91183167" id="Fill-4" fill="#FFC220" mask="url(#mask-4)"></path>
                                </g>
                            </g>
                            <text id="Chile" font-family="Bogle-Regular, Bogle" font-size="12" font-weight="normal" fill="#FFFFFF">
                                <tspan x="94" y="17">Chile</tspan>
                            </text>
                        </g>
                    </g>
                </g>
            </g>
        </g>
    </g>
</svg>