<?xml version="1.0" encoding="UTF-8"?>
<svg width="200px" height="49px" viewBox="0 0 200 49" version="1.1" xmlns="http://www.w3.org/2000/svg" xmlns:xlink="http://www.w3.org/1999/xlink">
    <!-- Generator: sketchtool 61.2 (101010) - https://sketch.com -->
    <title>74CE2228-1C0A-46B3-8A06-E161B5928613</title>
    <desc>Created with sketchtool.</desc>
    <defs>
        <polygon id="path-1" points="0 0.374140278 147.645165 0.374140278 147.645165 28.6733069 0 28.6733069"></polygon>
        <polygon id="path-3" points="0.387494383 0.385875 43.5989318 0.385875 43.5989318 48.9999592 0.387494383 48.9999592"></polygon>
    </defs>
    <g id="UI---Caroline" stroke="none" stroke-width="1" fill="none" fill-rule="evenodd">
        <g id="Login" transform="translate(-621.000000, -170.000000)">
            <g id="Group-3" transform="translate(424.000000, 123.000000)">
                <g id="logo" transform="translate(197.000000, 47.000000)">
                    <g id="Group-3" transform="translate(0.000000, 10.000000)">
                        <mask id="mask-2" fill="white">
                            <use xlink:href="#path-1"></use>
                        </mask>
                        <g id="Clip-2"></g>
                        <path d="M72.0625786,7.29708472 L72.0625786,10.1378764 L72.1469184,10.1378764 C73.1172307,8.61739028 74.7168471,6.82543194 78.2765512,6.82543194 C81.0467868,6.82543194 83.1723101,8.31168194 84.0765293,10.5644181 L84.160869,10.5644181 C84.9397951,9.42939028 85.8314444,8.56744583 86.8268964,7.96045972 C88.0108964,7.23868194 89.3205951,6.82543194 90.979817,6.82543194 C94.7272581,6.82543194 98.0461074,9.39676528 98.0461074,15.8899458 L98.0461074,28.2024597 L92.3288471,28.2024597 L92.3288471,16.7478625 C92.3288471,13.4567653 91.2060745,11.5528347 88.8664581,11.5528347 C87.1508745,11.5528347 85.9048362,12.6955153 85.4348855,14.0995986 C85.2726937,14.5849458 85.196869,15.2455014 85.196869,15.7944875 L85.196869,28.2024597 L79.484069,28.2024597 L79.484069,16.2878903 C79.484069,13.4910014 78.4042773,11.5528347 76.0966937,11.5528347 C74.2505458,11.5528347 73.0949293,12.9967931 72.6209238,14.2313069 C72.4189951,14.7601542 72.3529019,15.3675431 72.3529019,15.9423069 L72.3529019,28.2024597 L66.6336142,28.2024597 L66.6336142,7.29708472 L72.0625786,7.29708472 Z M127.544332,7.29708472 L127.544332,11.2402792 L127.70328,11.2402792 C128.749012,8.22991806 131.240683,6.82543194 133.430677,6.82543194 C133.980507,6.82543194 134.282184,6.86651528 134.724157,6.95472361 L134.724157,12.4284736 C134.197033,12.3523486 133.710458,12.2794458 133.030064,12.2794458 C130.552179,12.2794458 128.825647,13.7125292 128.390973,15.9551958 C128.299335,16.4167792 128.264058,16.9202514 128.264058,17.4982375 L128.264058,28.2024597 L122.395148,28.2024597 L122.395148,7.29708472 L127.544332,7.29708472 Z M142.690612,0.374543056 L142.690612,6.95472361 L147.645165,6.95472361 L147.645165,12.2794458 L142.690612,12.2794458 L142.690612,20.1332097 C142.690612,22.6743347 143.341001,23.9072375 145.278381,23.9072375 C146.191521,23.9072375 146.85894,23.7936542 147.439181,23.6518764 L147.512573,28.0675292 C146.732836,28.3563208 145.077669,28.6733069 143.39574,28.6733069 C141.417406,28.6733069 139.766699,27.9869736 138.764354,26.9276681 C137.617253,25.7165153 137.080803,23.7336403 137.080803,20.9033208 L137.080803,0.374543056 L142.690612,0.374543056 Z M56.9609019,28.2024597 L62.6493732,28.2024597 L62.6493732,0.374140278 L56.9609019,0.374140278 L56.9609019,28.2024597 Z M47.4832252,20.7341542 C47.4832252,21.1200153 47.4495704,21.5183625 47.3425238,21.8659597 C46.9017677,23.3143486 45.3913567,24.5387931 43.5030389,24.5387931 C41.9289677,24.5387931 40.6780636,23.6510708 40.6780636,21.7733208 C40.6780636,18.9019181 43.8606718,18.1076403 47.4832252,18.1265708 L47.4832252,20.7341542 Z M53.1660197,15.7304458 C53.1660197,10.9925708 51.1292964,6.82543194 44.2462827,6.82543194 C40.7109074,6.82543194 37.9045841,7.81183472 36.3751156,8.68989028 L37.4946444,12.4973486 C38.8943595,11.6205014 41.12328,10.8946958 43.234206,10.8946958 C46.7286279,10.8858347 47.300354,12.8582375 47.300354,14.1225569 L47.300354,14.4218208 C39.6854499,14.4105431 34.8760581,17.0277931 34.8760581,22.3629875 C34.8760581,25.6206542 37.324343,28.6733069 41.5818773,28.6733069 C44.2028964,28.6733069 46.3945129,27.6349458 47.7082663,25.9710708 L47.8368033,25.9710708 C47.8368033,25.9710708 48.7069622,29.5843903 53.4993238,28.2024597 C53.2475211,26.6984875 53.1660197,25.0954319 53.1660197,23.1649181 L53.1660197,15.7304458 Z M6.29218959,0.374543056 C6.87891836,3.3208625 8.55071014,11.8706264 8.55071014,11.8706264 C9.25097315,15.3864736 9.89811836,19.0722931 10.3838827,21.9867931 L10.4694389,21.9867931 C10.9434444,18.8918486 11.6891211,15.9592236 12.4862937,12.3269736 L15.3003211,0.374543056 L21.5256471,0.374543056 L24.1563978,12.6359042 C24.8473348,16.0478347 25.3967595,18.6751542 25.8285951,21.8478347 L25.9137458,21.8478347 C26.3889677,18.6441403 27.0044855,15.9072653 27.684069,12.4055153 L30.211017,0.374543056 L36.1857567,0.374543056 L28.7849458,28.2024597 C24.0704362,29.2287375 22.2640252,27.3437375 21.6144471,24.3515014 C20.9673019,21.3584597 19.7034225,15.6603625 19.7034225,15.6603625 C19.0554663,12.5408486 18.5490225,10.3396681 18.1930115,7.13677917 L18.104617,7.13677917 C17.5981732,10.3082514 17.0698334,12.5307792 16.2827978,15.6486819 L13.1768252,28.2024597 C8.36378411,29.1546264 6.69401973,27.7428903 5.76749918,23.9072375 C4.97357041,20.6209736 -4.05479452e-05,0.374543056 -4.05479452e-05,0.374543056 L6.29218959,0.374543056 Z M112.918283,20.7341542 C112.918283,21.1200153 112.883817,21.5183625 112.777176,21.8659597 C112.336825,23.3143486 110.826009,24.5387931 108.937691,24.5387931 C107.363214,24.5387931 106.11231,23.6510708 106.11231,21.7733208 C106.11231,18.9019181 109.295324,18.1076403 112.918283,18.1265708 L112.918283,20.7341542 Z M118.601888,15.7304458 C118.601888,10.9925708 116.564759,6.82543194 109.680935,6.82543194 C106.14637,6.82543194 103.340453,7.81183472 101.809362,8.68989028 L102.930513,12.4973486 C104.329417,11.6205014 106.559959,10.8946958 108.669669,10.8946958 C112.161658,10.8858347 112.734601,12.8582375 112.734601,14.1225569 L112.734601,14.4218208 C105.120913,14.4105431 100.310305,17.0277931 100.310305,22.3629875 C100.310305,25.6206542 102.760617,28.6733069 107.019773,28.6733069 C109.638765,28.6733069 111.831598,27.6349458 113.142513,25.9710708 L113.272266,25.9710708 C113.272266,25.9710708 114.14202,29.5843903 118.934787,28.2024597 C118.682984,26.6984875 118.601888,25.0954319 118.601888,23.1649181 L118.601888,15.7304458 Z" id="Fill-1" fill="#0071CE" mask="url(#mask-2)"></path>
                    </g>
                    <g id="Group-6" transform="translate(156.000000, 0.000000)">
                        <mask id="mask-4" fill="white">
                            <use xlink:href="#path-3"></use>
                        </mask>
                        <g id="Clip-5"></g>
                        <path d="M15.1316407,28.6653675 C15.6987519,29.6514925 15.6551593,30.7560342 15.0554556,31.2533842 L4.6241963,38.5797008 C3.54130741,39.2069008 1.91412222,38.4469925 0.990937037,36.8483675 C0.0653074074,35.2452508 0.229492593,33.4543008 1.31238148,32.8234258 L12.8607519,27.4399592 C13.5834926,27.1671925 14.5641222,27.6784258 15.1316407,28.6653675 M28.8543444,28.6653675 C29.4230852,27.6784258 30.400863,27.1671925 31.1236037,27.4399592 L42.6736037,32.8234258 C43.7609741,33.4543008 43.9170111,35.2452508 42.9979,36.8483675 C42.0706407,38.4469925 40.4418259,39.2069008 39.3605667,38.5797008 L28.9293074,31.2533842 C28.332863,30.7560342 28.2868259,29.6498592 28.8543444,28.6653675 M21.9903444,32.6384508 C23.1266037,32.6384508 24.0599741,33.2268592 24.1866778,33.9920758 L25.3094926,46.7100258 C25.3094926,47.9693258 23.8403815,48.9999592 21.9915667,48.9999592 C20.1464185,48.9999592 18.6793444,47.9693258 18.6793444,46.7100258 L19.7997148,33.9920758 C19.9239741,33.2268592 20.8585667,32.6384508 21.9903444,32.6384508 M28.9293074,18.1401675 L39.3605667,10.8081342 C40.4418259,10.1793008 42.0706407,10.9363508 42.9979,12.5398758 C43.9170111,14.1421758 43.7609741,15.9319008 42.6736037,16.5599175 L31.1236037,21.9499175 C30.400863,22.2194175 29.421863,21.7073675 28.8543444,20.7220592 C28.2868259,19.7367508 28.332863,18.6318008 28.9293074,18.1401675 M12.8607519,21.9499175 L1.31238148,16.5599175 C0.229492593,15.9319008 0.0653074074,14.1421758 0.990937037,12.5398758 C1.91412222,10.9363508 3.54130741,10.1793008 4.6241963,10.8081342 L15.0554556,18.1401675 C15.6551593,18.6318008 15.6991593,19.7351175 15.1312333,20.7220592 C14.5645296,21.7065508 13.5834926,22.2194175 12.8607519,21.9499175 M19.7997148,15.3945342 L18.6793444,2.67617583 C18.6793444,1.41850917 20.1464185,0.385834167 21.9915667,0.385834167 C23.8403815,0.385834167 25.3094926,1.41850917 25.3094926,2.67617583 L24.1866778,15.3945342 C24.0599741,16.1605675 23.1266037,16.7518342 21.9903444,16.7518342 C20.8585667,16.7518342 19.9239741,16.1605675 19.7997148,15.3945342" id="Fill-4" fill="#FFC220" mask="url(#mask-4)"></path>
                    </g>
                </g>
            </g>
        </g>
    </g>
</svg>