<?xml version="1.0" encoding="UTF-8"?>
<svg width="180px" height="55px" viewBox="0 0 180 55" version="1.1" xmlns="http://www.w3.org/2000/svg" xmlns:xlink="http://www.w3.org/1999/xlink">
    <!-- Generator: sketchtool 61.2 (101010) - https://sketch.com -->
    <title>D33832B5-87A1-4EE4-BB80-60433E4FD4DA</title>
    <desc>Created with sketchtool.</desc>
    <defs>
        <polygon id="path-1" points="0 0.335436111 132.681128 0.335436111 132.681128 25.7071028 0 25.7071028"></polygon>
        <polygon id="path-3" points="0.343460931 0.3465 38.6445078 0.3465 38.6445078 43.9999633 0.343460931 43.9999633"></polygon>
    </defs>
    <g id="UI---Caroline" stroke="none" stroke-width="1" fill="none" fill-rule="evenodd">
        <g id="Ficha-cliente---sin-informacion" transform="translate(-107.000000, -17.000000)">
            <g id="header-2-color">
                <g id="Group-7">
                    <g id="Group-4" transform="translate(107.000000, 17.000000)">
                        <g id="Group-7">
                            <g id="Group-3" transform="translate(0.000000, 9.000000)">
                                <mask id="mask-2" fill="white">
                                    <use xlink:href="#path-1"></use>
                                </mask>
                                <g id="Clip-2"></g>
                                <path d="M64.7589389,6.54221389 L64.7589389,9.08913056 L64.8347307,9.08913056 C65.7067005,7.72593611 67.1441937,6.11935278 70.343117,6.11935278 C72.8325855,6.11935278 74.7426841,7.45185278 75.5552595,9.47154722 L75.6310512,9.47154722 C76.3310321,8.45393611 77.1323115,7.68115833 78.0268732,7.13696389 C79.0908732,6.48985278 80.2678321,6.11935278 81.7588896,6.11935278 C85.1265225,6.11935278 88.1090019,8.42468611 88.1090019,14.2461583 L88.1090019,25.2849639 L82.9711937,25.2849639 L82.9711937,15.015325 C82.9711937,12.0646861 81.9622156,10.3577139 79.8597225,10.3577139 C78.3180156,10.3577139 77.1982649,11.3821861 76.7759444,12.6410194 C76.630191,13.0761583 76.5620512,13.6683806 76.5620512,14.160575 L76.5620512,25.2849639 L71.4282512,25.2849639 L71.4282512,14.6029361 C71.4282512,12.0953806 70.4578978,10.3577139 68.384191,10.3577139 C66.7251526,10.3577139 65.6866595,11.6522972 65.2606951,12.7591028 C65.0792321,13.2332417 65.0198375,13.7777972 65.0198375,14.2931028 L65.0198375,25.2849639 L59.8802074,25.2849639 L59.8802074,6.54221389 L64.7589389,6.54221389 Z M114.617542,6.54221389 L114.617542,10.0774917 L114.76038,10.0774917 C115.700125,7.37854722 117.939262,6.11935278 119.907298,6.11935278 C120.401402,6.11935278 120.672503,6.15618611 121.069681,6.23526944 L121.069681,11.1427694 C120.595983,11.0745194 120.158722,11.0091583 119.547287,11.0091583 C117.320539,11.0091583 115.768994,12.2939917 115.378375,14.3046583 C115.296024,14.7184917 115.264322,15.1698806 115.264322,15.688075 L115.264322,25.2849639 L109.990235,25.2849639 L109.990235,6.54221389 L114.617542,6.54221389 Z M128.228725,0.335797222 L128.228725,6.23526944 L132.681128,6.23526944 L132.681128,11.0091583 L128.228725,11.0091583 L128.228725,18.0504639 C128.228725,20.3287139 128.813196,21.434075 130.554221,21.434075 C131.374813,21.434075 131.974588,21.3322417 132.496021,21.2051306 L132.561975,25.1639917 C131.861265,25.4229083 130.373851,25.7071028 128.862388,25.7071028 C127.084561,25.7071028 125.601155,25.0917694 124.700399,24.1420472 C123.669558,23.0561861 123.187479,21.2784361 123.187479,18.7409083 L123.187479,0.335797222 L128.228725,0.335797222 Z M51.1878375,25.2849639 L56.2997745,25.2849639 L56.2997745,0.335436111 L51.1878375,0.335436111 L51.1878375,25.2849639 Z M42.6707362,18.5892417 C42.6707362,18.9351861 42.6404923,19.292325 42.5442951,19.6039639 C42.1482101,20.9025194 40.7908814,22.0002972 39.0939471,22.0002972 C37.6794101,22.0002972 36.5552868,21.2044083 36.5552868,19.5209083 C36.5552868,16.9465472 39.4153334,16.2344361 42.6707362,16.2514083 L42.6707362,18.5892417 Z M47.7775718,14.1031583 C47.7775718,9.85540833 45.9472732,6.11935278 39.7618622,6.11935278 C36.5848019,6.11935278 34.0629033,7.00371389 32.6884485,7.79093611 L33.6945115,11.2045194 C34.9523636,10.4183806 36.95538,9.76765833 38.8523608,9.76765833 C41.9926184,9.75971389 42.5063992,11.528075 42.5063992,12.6616028 L42.5063992,12.9299083 C35.6632759,12.9197972 31.3413225,15.2662972 31.3413225,20.049575 C31.3413225,22.9702417 33.5414704,25.7071028 37.3674978,25.7071028 C39.7228732,25.7071028 41.6923663,24.7761583 42.872969,23.2844083 L42.9884786,23.2844083 C42.9884786,23.2844083 43.7704458,26.5239361 48.0770951,25.2849639 C47.8508129,23.936575 47.7775718,22.4993528 47.7775718,20.7685472 L47.7775718,14.1031583 Z M5.65446767,0.335797222 C6.18173068,2.977325 7.68408411,10.6426306 7.68408411,10.6426306 C8.31337452,13.7947694 8.89493068,17.0992972 9.33146219,19.7122972 L9.40834712,19.7122972 C9.83431151,16.9375194 10.5044129,14.3082694 11.220791,11.0517694 L13.7496129,0.335797222 L19.3439937,0.335797222 L21.7081142,11.3287417 C22.3290238,14.3877139 22.8227636,16.7432417 23.2108321,19.5877139 L23.2873526,19.5877139 C23.7144101,16.7154361 24.2675444,14.2616861 24.8782512,11.1221861 L27.1490896,0.335797222 L32.5182814,0.335797222 L25.8675526,25.2849639 C21.6308649,26.205075 20.0075362,24.515075 19.4237937,21.8323806 C18.8422375,19.1489639 17.706454,14.040325 17.706454,14.040325 C17.124169,11.2435194 16.669054,9.27004722 16.3491252,6.39849167 L16.2696896,6.39849167 C15.8145745,9.24188056 15.3397827,11.2344917 14.6325142,14.0298528 L11.8413362,25.2849639 C7.51610329,26.1386306 6.01557178,24.8729361 5.18295534,21.434075 C4.46949233,18.4877694 -3.64383562e-05,0.335797222 -3.64383562e-05,0.335797222 L5.65446767,0.335797222 Z M101.473862,18.5892417 C101.473862,18.9351861 101.44289,19.292325 101.347057,19.6039639 C100.951336,20.9025194 99.593643,22.0002972 97.8967088,22.0002972 C96.4818074,22.0002972 95.3576841,21.2044083 95.3576841,19.5209083 C95.3576841,16.9465472 98.2180951,16.2344361 101.473862,16.2514083 L101.473862,18.5892417 Z M106.581427,14.1031583 C106.581427,9.85540833 104.750764,6.11935278 98.5646238,6.11935278 C95.3882923,6.11935278 92.8667581,7.00371389 91.4908458,7.79093611 L92.4983663,11.2045194 C93.7554896,10.4183806 95.7599636,9.76765833 97.6558512,9.76765833 C100.793922,9.75971389 101.308796,11.528075 101.308796,12.6616028 L101.308796,12.9299083 C94.4667663,12.9197972 90.1437197,15.2662972 90.1437197,20.049575 C90.1437197,22.9702417 92.3456896,25.7071028 96.1731745,25.7071028 C98.5267279,25.7071028 100.497314,24.7761583 101.675366,23.2844083 L101.791969,23.2844083 C101.791969,23.2844083 102.573572,26.5239361 106.880585,25.2849639 C106.654303,23.936575 106.581427,22.4993528 106.581427,20.7685472 L106.581427,14.1031583 Z" id="Fill-1" fill="#FFFFFF" mask="url(#mask-2)"></path>
                            </g>
                            <g id="Group-6" transform="translate(141.000000, 0.000000)">
                                <mask id="mask-4" fill="white">
                                    <use xlink:href="#path-3"></use>
                                </mask>
                                <g id="Clip-5"></g>
                                <path d="M13.4121361,25.74033 C13.9148028,26.62583 13.8761639,27.6176633 13.3446083,28.0642633 L4.09871944,34.6429967 C3.13888611,35.2061967 1.69660833,34.52383 0.878330556,33.08833 C0.0578861111,31.6487967 0.203413889,30.0405967 1.16324722,29.4740967 L11.3993028,24.6399633 C12.0399139,24.39503 12.9091083,24.8540967 13.4121361,25.74033 M25.5754417,25.74033 C26.0795528,24.8540967 26.9462194,24.39503 27.5868306,24.6399633 L37.8243306,29.4740967 C38.7881361,30.0405967 38.9264417,31.6487967 38.111775,33.08833 C37.2898861,34.52383 35.8461639,35.2061967 34.887775,34.6429967 L25.6418861,28.0642633 C25.1132194,27.6176633 25.0724139,26.6243633 25.5754417,25.74033 M19.4914417,29.3079967 C20.4985806,29.3079967 21.3258861,29.8363633 21.4381917,30.5234967 L22.4334139,41.9436967 C22.4334139,43.0744967 21.1312472,43.9999633 19.492525,43.9999633 C17.8570528,43.9999633 16.5566917,43.0744967 16.5566917,41.9436967 L17.5497472,30.5234967 C17.6598861,29.8363633 18.488275,29.3079967 19.4914417,29.3079967 M25.6418861,16.28913 L34.887775,9.70526333 C35.8461639,9.14059667 37.2898861,9.82039667 38.111775,11.2602967 C38.9264417,12.6990967 38.7881361,14.3061967 37.8243306,14.87013 L27.5868306,19.71013 C26.9462194,19.95213 26.0784694,19.49233 25.5754417,18.6075633 C25.0724139,17.7227967 25.1132194,16.7305967 25.6418861,16.28913 M11.3993028,19.71013 L1.16324722,14.87013 C0.203413889,14.3061967 0.0578861111,12.6990967 0.878330556,11.2602967 C1.69660833,9.82039667 3.13888611,9.14059667 4.09871944,9.70526333 L13.3446083,16.28913 C13.8761639,16.7305967 13.9151639,17.72133 13.411775,18.6075633 C12.9094694,19.4915967 12.0399139,19.95213 11.3993028,19.71013 M17.5497472,13.8236633 L16.5566917,2.40309667 C16.5566917,1.27376333 17.8570528,0.346463333 19.492525,0.346463333 C21.1312472,0.346463333 22.4334139,1.27376333 22.4334139,2.40309667 L21.4381917,13.8236633 C21.3258861,14.51153 20.4985806,15.0424633 19.4914417,15.0424633 C18.488275,15.0424633 17.6598861,14.51153 17.5497472,13.8236633" id="Fill-4" fill="#FFC220" mask="url(#mask-4)"></path>
                            </g>
                        </g>
                        <text id="CAROLINE" font-family="Bogle-Regular, Bogle" font-size="15" font-weight="normal" line-spacing="20" fill="#FAFAFA">
                            <tspan x="58" y="54">CAROLINE</tspan>
                        </text>
                    </g>
                </g>
            </g>
        </g>
    </g>
</svg>