<svg xmlns="http://www.w3.org/2000/svg" width="24" height="25" viewBox="0 0 24 25">
    <g fill="none" fill-rule="evenodd">
        <path fill="#1D2129" d="M2.293 2.293c.39-.39 1.024-.39 1.414 0L7.244 5.83C8.69 5.288 10.315 5 12 5c5.458 0 10 3.028 10 7 0 2.034-1.294 3.898-3.38 5.206l3.087 3.087c.39.39.39 1.024 0 1.414-.39.39-1.024.39-1.414 0l-18-18c-.39-.39-.39-1.024 0-1.414zM5.077 8.07c.401.38.418 1.013.037 1.414-.174.184-.33.374-.465.568C4.22 10.673 4 11.33 4 12c0 2.656 3.516 5 8 5 .637 0 1.24-.044 1.817-.132.546-.082 1.056.293 1.139.84.083.545-.293 1.055-.839 1.138-.678.103-1.382.154-2.117.154-5.458 0-10-3.028-10-7 0-1.092.35-2.143 1.006-3.087.194-.28.414-.548.658-.805.38-.4 1.013-.417 1.413-.037zm5.05 4.632c.206.55.648.985 1.201 1.182.52.185.792.757.606 1.277-.185.52-.757.792-1.278.606-1.107-.394-1.989-1.262-2.402-2.362-.194-.517.068-1.094.585-1.288.517-.194 1.094.068 1.288.585zM12 7c-1.108 0-2.181.144-3.169.416l1.137 1.138C10.575 8.195 11.273 8 12 8c2.21 0 4 1.79 4 4 0 .726-.195 1.423-.553 2.031l1.713 1.714C18.953 14.753 20 13.361 20 12c0-2.656-3.516-5-8-5zm0 3c-.177 0-.35.023-.517.067l2.45 2.45c.044-.166.067-.34.067-.517 0-1.105-.895-2-2-2z" transform="translate(0 1)"/>
    </g>
</svg>
