<svg xmlns="http://www.w3.org/2000/svg" width="24" height="24" viewBox="0 0 24 24">
    <defs>
        <filter id="a" width="108.6%" height="113.2%" x="-4.3%" y="-6.6%" filterUnits="objectBoundingBox">
            <feOffset dy="1" in="SourceAlpha" result="shadowOffsetOuter1"/>
            <feGaussianBlur in="shadowOffsetOuter1" result="shadowBlurOuter1" stdDeviation="3"/>
            <feComposite in="shadowBlurOuter1" in2="SourceAlpha" operator="out" result="shadowBlurOuter1"/>
            <feColorMatrix in="shadowBlurOuter1" result="shadowMatrixOuter1" values="0 0 0 0 0 0 0 0 0 0 0 0 0 0 0 0 0 0 0.131368886 0"/>
            <feMerge>
                <feMergeNode in="shadowMatrixOuter1"/>
                <feMergeNode in="SourceGraphic"/>
            </feMerge>
        </filter>
    </defs>
    <path fill="#0071CE" fill-rule="nonzero" d="M6.114 3.1c.558 0 1.089.209 1.529.586l.378.355.252.249.47.482 1.286 1.286c.98.979 1.034 2.294.126 3.323l-.124.131-.914.92-.114.11a8.4 8.4 0 0 0 .874 1.306c.915 1.123 1.862 2.01 2.885 2.708l.332.217.137.076.208.105 1.024-1.02c.492-.491 1.086-.758 1.714-.758.563 0 1.097.215 1.559.628l.14.135 2.207 2.213c.493.487.761 1.086.761 1.718 0 .623-.26 1.222-.74 1.72l-.123.127-.816.8c-.103.107-.189.2-.265.293l-.004-.003-.03.043a3.486 3.486 0 0 1-2.447 1.145l-.284.005-.226-.009c-1.237-.079-2.35-.443-3.72-1.091a19.418 19.418 0 0 1-6.466-5.058c-1.482-1.779-2.486-3.453-3.16-5.269-.422-1.135-.631-2.126-.543-3.19.066-.755.35-1.424.852-1.996l.158-.167L4.4 3.84l.164-.15c.458-.382.993-.59 1.55-.59zm.008 2.039a.306.306 0 0 0-.147.048l-.055.037-.073.06-1.373 1.372a1.368 1.368 0 0 0-.417.896c-.054.663.073 1.377.423 2.312.588 1.589 1.48 3.07 2.816 4.68a17.399 17.399 0 0 0 5.782 4.524c1.007.481 1.844.773 2.685.87l.28.025.07.003.244-.005c.413-.03.722-.18.99-.466a9.52 9.52 0 0 1 .645-.68l.44-.428.191-.196.07-.077c.135-.164.152-.262.061-.392l-.045-.058-.072-.077-2.302-2.298c-.061-.05-.121-.079-.166-.079a.308.308 0 0 0-.157.065l-.06.047-.054.05-1.376 1.375c-.071.07-.128.122-.214.182a1.264 1.264 0 0 1-1.24.13l-.134-.06-.195-.113-.456-.232-.214-.119-.092-.056c-1.094-.691-2.103-1.554-3.063-2.618l-.318-.363-.313-.375c-.574-.727-.972-1.35-1.273-2.016l-.11-.251-.048-.166c-.1-.403-.05-.778.238-1.134l.129-.145.161-.145.26-.244.282-.278.735-.741c.138-.154.147-.238.053-.366l-.046-.058L8.59 7.5 7.486 6.397l-.655-.668-.23-.229-.229-.22c-.093-.092-.183-.141-.25-.141zm6.714.316h.075l.13.012a6.688 6.688 0 0 1 3.618 1.874 6.677 6.677 0 0 1 1.877 3.618 1.021 1.021 0 0 1-.746 1.152l-.13.026-.134.01c-.497 0-.924-.355-1.006-.847a4.647 4.647 0 0 0-1.308-2.517 4.628 4.628 0 0 0-2.517-1.306 1.013 1.013 0 0 1-.832-1.181c.077-.433.42-.764.887-.835l.086-.006zM12.989 2h.078l.123.014c2.2.375 4.201 1.41 5.792 3a10.67 10.67 0 0 1 3.002 5.78 1.01 1.01 0 0 1-.741 1.153l-.13.025-.134.01c-.496 0-.923-.355-1.005-.847a8.627 8.627 0 0 0-2.431-4.684 8.675 8.675 0 0 0-4.693-2.429 1.023 1.023 0 0 1-.834-1.18c.077-.432.42-.766.888-.836L12.989 2z" filter="url(#a)"/>
</svg>
