<svg xmlns="http://www.w3.org/2000/svg" width="32" height="32" viewBox="0 0 32 32">
    <g fill="none" fill-rule="evenodd">
        <path fill="#FA6400" d="M16 1C8.85 1 3 6.625 3 13.5c0 9.25 11.83 17 12.22 17.25.26.125.52.25.78.25s.52-.125.78-.25c.39-.25 12.22-8 12.22-17.25C29 6.625 23.15 1 16 1z"/>
        <path fill="#FFF" fill-rule="nonzero" d="M16 5c-4.968 0-9 4.032-9 9s4.032 9 9 9 9-4.032 9-9-4.032-9-9-9z"/>
        <path fill="#FFC220" d="M15.998 16.124c.29 0 .528.158.56.363l.286 3.4c0 .337-.374.613-.844.613s-.844-.276-.844-.612l.286-3.401c.028-.182.22-.327.464-.357l.092-.006zm2.326-1.39l2.94 1.44c.277.169.317.648.083 1.077-.236.427-.65.63-.926.463l-2.655-1.96c-.152-.133-.163-.429-.019-.692h-.001c.145-.263.394-.4.578-.327zm-4.07.329l-.001-.001c.145.263.134.56-.02.692l-2.654 1.96c-.276.167-.69-.036-.925-.463-.236-.43-.194-.908.081-1.077l2.94-1.44c.184-.072.434.065.579.329zm-3.6-4.313c.235-.429.649-.631.925-.463l2.655 1.96c.153.132.164.429.019.692-.144.262-.394.4-.578.327l-2.94-1.44c-.275-.169-.317-.647-.081-1.076zm9.767-.463c.275-.168.69.034.926.463.234.429.194.907-.083 1.075l-2.94 1.441c-.184.073-.433-.065-.578-.329-.143-.261-.132-.558.02-.69zM16 7.5c.47 0 .844.276.844.612l-.286 3.401c-.032.205-.27.363-.56.363-.286 0-.525-.158-.556-.363l-.286-3.4c0-.337.374-.613.844-.613z"/>
    </g>
</svg>
