<svg xmlns="http://www.w3.org/2000/svg" width="24" height="24" viewBox="0 0 24 24">
    <g fill="none" fill-rule="evenodd">
        <path fill="#0071CE" d="M12.263 2.333c5.484 0 9.93 4.442 9.93 9.921 0 2.33-.804 4.473-2.15 6.166l5.28 5.252c.457.455.458 1.194.003 1.651-.455.457-1.195.458-1.652.004l-5.288-5.262c-1.687 1.322-3.813 2.11-6.123 2.11-5.484 0-9.93-4.442-9.93-9.92 0-5.48 4.446-9.922 9.93-9.922zm0 2.335c-4.194 0-7.593 3.396-7.593 7.586s3.4 7.587 7.593 7.587c4.194 0 7.593-3.397 7.593-7.587 0-4.19-3.4-7.586-7.593-7.586z" transform="translate(-2 -2)"/>
    </g>
</svg>
